<?xml version="1.0" encoding="UTF-8"?>
<svg id="Layer_1" data-name="Layer 1" xmlns="http://www.w3.org/2000/svg" xmlns:xlink="http://www.w3.org/1999/xlink" viewBox="0 0 115.8 103.31">
  <defs>
    <style>
      .cls-1 {
        fill: url(#linear-gradient);
      }

      .cls-2 {
        fill: #595a5c;
      }

      .cls-3 {
        fill: url(#linear-gradient-3);
      }

      .cls-4 {
        fill: url(#linear-gradient-4);
      }

      .cls-5 {
        fill: url(#linear-gradient-2);
      }

      .cls-6 {
        fill: url(#linear-gradient-5);
      }
    </style>
    <linearGradient id="linear-gradient" x1="0" y1="48.28" x2="61.06" y2="48.28" gradientUnits="userSpaceOnUse">
      <stop offset="0" stop-color="#8fcb7b"/>
      <stop offset="1" stop-color="#209ad6"/>
    </linearGradient>
    <linearGradient id="linear-gradient-2" x1="59.48" y1="59.04" x2="20.52" y2="59.04" xlink:href="#linear-gradient"/>
    <linearGradient id="linear-gradient-3" x1="59.48" y1="7.48" x2="20.52" y2="7.48" xlink:href="#linear-gradient"/>
    <linearGradient id="linear-gradient-4" x1="36.07" y1="42.2" x2="88.43" y2="42.2" xlink:href="#linear-gradient"/>
    <linearGradient id="linear-gradient-5" x1="63.59" y1="41.91" x2="115.8" y2="41.91" xlink:href="#linear-gradient"/>
  </defs>
  <path class="cls-1" d="M61.06,0l-8.07,15.72c-2.86,1-5.55,2.48-8.01,4.4-5.9,4.62-9.64,11.25-10.55,18.68-.47,3.85-.15,7.67,.91,11.28L11.47,96.56H0L44.25,10.15H15.34L9.08,0H61.06Z"/>
  <g>
    <path class="cls-5" d="M36.23,52.64c.81,2.01,1.86,3.94,3.14,5.74l-3.62,7.05-2.67-6.64,3.15-6.16Z"/>
    <path class="cls-3" d="M69.35,0l-7.27,14.16c-2.23,0-4.43,.28-6.55,.8L63.19,0h6.16Z"/>
  </g>
  <path class="cls-2" d="M51.83,76.22c-5.37,0-9.74,4.37-9.74,9.74v17.35h4.27v-17.35c0-3.01,2.45-5.46,5.47-5.46s5.46,2.45,5.46,5.46-2.45,5.47-5.46,5.47c-1.15,0-2.24-.35-3.17-1.01l-.73-.5v4.97c1.22,.53,2.54,.81,3.9,.81,5.37,0,9.74-4.37,9.74-9.74s-4.37-9.74-9.74-9.74Z"/>
  <path class="cls-2" d="M72.92,76.22c-5.37,0-9.74,4.37-9.74,9.74v17.35h4.27v-17.35c0-3.01,2.45-5.46,5.47-5.46s5.46,2.45,5.46,5.46-2.45,5.47-5.46,5.47c-1.15,0-2.24-.35-3.17-1.01l-.73-.5v4.97c1.22,.53,2.54,.81,3.9,.81,5.37,0,9.74-4.37,9.74-9.74s-4.37-9.74-9.74-9.74Z"/>
  <path class="cls-2" d="M101.63,90.05c0,3.24-2.64,5.88-5.89,5.88h-17.61c1.72-.94,3.17-2.32,4.2-3.98h13.41c1.05,0,1.91-.85,1.91-1.91s-.85-1.91-1.91-1.91h-5.82c-3.24,0-5.88-2.64-5.88-5.89s2.64-5.88,5.88-5.88h8.92l-2.79,3.98h-6.13c-1.05,0-1.91,.85-1.91,1.91s.85,1.91,1.91,1.91h5.82c3.25,0,5.89,2.64,5.89,5.89Z"/>
  <polygon class="cls-2" points="40.88 82.56 40.88 95.57 37.34 86.8 26.64 86.8 28.66 82.53 35.62 82.53 31.81 73.1 19.77 96.56 13.74 96.56 32.09 60.72 40.88 82.56"/>
  <path class="cls-4" d="M88.3,44.77l-8.84-3.72c-.19-2.88-1.1-5.66-2.67-8.11-.29-.47-.62-.92-.96-1.36-2.04-2.61-4.72-4.53-7.77-5.61-1.19-.43-2.43-.72-3.72-.87-4.57-.56-9.08,.69-12.71,3.53-3.63,2.84-5.93,6.91-6.49,11.49-.56,4.57,.7,9.08,3.53,12.71,2.84,3.63,6.92,5.93,11.49,6.49,2.47,.3,4.93,.08,7.23-.65,1.27,1.69,2.75,3.24,4.42,4.63,.88,.74,1.8,1.41,2.75,2.03-4.71,2.52-10.07,3.53-15.48,2.87-.91-.11-1.82-.27-2.7-.47-5.84-1.33-11-4.6-14.75-9.38-4.31-5.51-6.22-12.36-5.37-19.3,.85-6.94,4.34-13.14,9.85-17.45,5.51-4.31,12.36-6.22,19.3-5.37,3.07,.37,5.99,1.26,8.66,2.62,3.39,1.71,6.38,4.16,8.79,7.23,.34,.44,.67,.89,.98,1.35,3.5,5.09,5.06,11.18,4.45,17.36Z"/>
  <path class="cls-6" d="M109.74,58.66c-4.48,5.37-10.78,8.68-17.74,9.32-2.79,.26-5.57,.07-8.23-.54-1.93-.44-3.79-1.1-5.57-1.97-.14-.07-.28-.13-.41-.2-1.74-.88-3.38-1.97-4.92-3.24-1.88-1.57-3.51-3.36-4.86-5.32-.04-.05-.07-.1-.1-.15-2.37-3.5-3.86-7.55-4.32-11.86l10.33,4.35c1.06,2.34,2.64,4.43,4.67,6.12,3.54,2.95,8.01,4.34,12.6,3.92,4.59-.42,8.73-2.6,11.68-6.14,2.94-3.54,4.34-8.01,3.92-12.6-.41-4.59-2.59-8.73-6.13-11.68-3.54-2.95-8.01-4.34-12.6-3.92-1.15,.1-2.27,.32-3.36,.64-.08,.02-.15,.05-.23,.07-.1-.14-.21-.27-.31-.4-1.96-2.5-4.26-4.61-6.84-6.27,.07-.04,.14-.08,.22-.11,2.98-1.55,6.26-2.52,9.71-2.83,6.96-.64,13.76,1.48,19.13,5.96,5.37,4.47,8.68,10.77,9.32,17.74s-1.48,13.76-5.95,19.13Z"/>
</svg>