<svg width="331" height="362" viewBox="0 0 331 362" fill="none" xmlns="http://www.w3.org/2000/svg">
<g clip-path="url(#clip0_19_1336)">
<path d="M77.8984 321.735C77.8984 321.735 77.8356 321.735 77.8146 321.735C79.8035 322.111 81.7923 322.405 83.802 322.656C85.3512 322.844 86.9004 322.97 88.4495 323.095V290.813C88.1983 290.792 87.9471 290.771 87.6959 290.75C86.5445 290.604 85.393 290.436 84.2835 290.227C83.488 290.08 82.7134 289.955 81.9179 289.745C81.248 289.641 80.6199 289.473 79.9919 289.285C78.2543 288.866 76.4958 288.301 74.7582 287.715C74.3395 287.568 73.9208 287.443 73.544 287.254C72.7066 286.94 71.911 286.626 71.0946 286.27C70.5712 286.103 70.0897 285.851 69.5873 285.6C69.4826 285.558 69.3361 285.537 69.2314 285.454C68.9174 285.307 68.6033 285.182 68.3312 284.993C67.4938 284.637 66.6564 284.218 65.8609 283.737C65.6934 283.674 65.4841 283.569 65.2957 283.423C64.3117 282.941 63.3487 282.376 62.3648 281.748C61.2134 281.057 60.062 280.283 58.9733 279.487C57.8219 278.692 56.7333 277.854 55.6656 276.933C55.4982 276.786 55.2888 276.619 55.1004 276.451C54.2211 275.761 53.3838 274.986 52.5882 274.19C52.337 274.023 52.1067 273.772 51.8974 273.52C50.9972 272.641 50.0761 271.699 49.2805 270.757C48.2338 269.668 47.2917 268.559 46.4125 267.366C46.0566 266.947 45.7216 266.528 45.4076 266.068L11.3886 271.992C12.54 274.232 13.7333 276.389 15.0521 278.524C15.8267 279.822 16.6641 281.099 17.5225 282.355C17.8993 282.92 18.297 283.465 18.7157 284.03C19.4485 285.119 20.223 286.165 21.0604 287.17C22.149 288.573 23.2586 289.892 24.41 291.211C26.7128 293.828 29.1203 296.319 31.6744 298.643C32.7839 299.648 33.9144 300.674 35.0867 301.637C35.652 302.097 36.1963 302.537 36.7615 302.956C37.0755 303.27 37.4314 303.521 37.8083 303.751C38.6875 304.484 39.5877 305.154 40.5298 305.803C42.7698 307.415 45.0726 308.88 47.4801 310.283C48.6734 310.974 49.8458 311.644 51.0809 312.314C52.2742 312.942 53.5303 313.57 54.7445 314.156C56.0006 314.721 57.2567 315.308 58.5546 315.831C60.3969 316.606 62.2601 317.338 64.1442 317.987C66.6983 318.867 69.2523 319.662 71.7854 320.332C73.8161 320.834 75.8468 321.274 77.9193 321.651L77.8984 321.735Z" fill="url(#paint0_linear_19_1336)"/>
<path d="M188.664 240.485C188.978 237.889 189.188 235.314 189.292 232.738C189.397 230.163 189.418 227.588 189.313 225.034C189.251 223.883 189.167 222.773 189.104 221.643C189.062 221.266 189.041 220.847 188.999 220.428C188.937 219.528 188.832 218.607 188.685 217.749C188.413 215.446 188.057 213.143 187.576 210.84C187.429 210.003 187.262 209.165 187.052 208.37C185.901 203.241 184.289 198.216 182.258 193.296C182.216 193.254 182.196 193.233 182.196 193.15C181.526 191.538 180.793 189.947 180.039 188.335C179.369 186.974 178.72 185.634 178.009 184.315C177.339 183.122 176.69 181.97 175.978 180.819C175.35 179.73 174.659 178.662 173.947 177.616C173.256 176.527 172.482 175.459 171.707 174.371C170.933 173.282 170.137 172.235 169.342 171.188C165.992 166.897 162.287 162.94 158.351 159.318C157.346 158.439 156.32 157.539 155.315 156.701C154.31 155.864 153.264 155.026 152.217 154.231C151.442 153.645 150.71 153.079 149.956 152.556C149.223 151.991 148.449 151.467 147.695 150.986C147.339 150.777 147.025 150.567 146.711 150.316C145.56 149.583 144.366 148.85 143.194 148.16C137.877 145.019 132.224 142.423 126.3 140.33C125.044 139.869 123.746 139.45 122.469 139.074C121.275 138.718 120.103 138.383 118.91 138.069C118.637 138.006 118.344 137.922 118.072 137.859C117.193 137.65 116.335 137.441 115.497 137.273C115.016 137.169 114.492 137.064 113.969 136.959C113.739 136.917 113.488 136.875 113.257 136.834V169.911C114.074 170.163 114.911 170.435 115.707 170.728C115.853 170.791 116.021 170.833 116.167 170.895C116.9 171.105 117.591 171.377 118.261 171.67C119.37 172.131 120.459 172.57 121.547 173.073C123.369 173.91 125.106 174.81 126.823 175.857C127.702 176.339 128.561 176.904 129.398 177.469C130.193 177.992 131.01 178.558 131.764 179.102C133.124 180.086 134.443 181.133 135.741 182.284C136.474 182.87 137.165 183.498 137.877 184.21C138.567 184.838 139.237 185.508 139.907 186.199C139.97 186.262 140.075 186.346 140.117 186.45C141.435 187.769 142.671 189.214 143.78 190.679C144.199 191.14 144.576 191.663 144.932 192.145C145.497 192.878 146.02 193.61 146.502 194.343C147.088 195.18 147.653 196.06 148.176 196.918C148.742 197.797 149.223 198.698 149.705 199.577C149.705 199.619 149.747 199.64 149.768 199.682C150.249 200.561 150.71 201.419 151.086 202.34C152.552 205.313 153.745 208.349 154.645 211.489C154.792 211.971 154.917 212.473 155.064 212.955C155.231 213.52 155.378 214.064 155.525 214.629C155.671 215.216 155.797 215.823 155.901 216.409C156.278 218.084 156.571 219.759 156.739 221.475C156.885 222.271 156.948 223.087 157.011 223.925C157.053 223.988 157.053 224.071 157.011 224.134C157.283 227.065 157.325 229.996 157.116 232.969C157.011 235.272 156.739 237.575 156.32 239.857C156.174 240.861 155.964 241.845 155.734 242.85C155.525 243.834 155.273 244.776 155.001 245.739V245.886C154.75 246.723 154.52 247.519 154.227 248.356C154.08 248.817 153.954 249.256 153.766 249.717C153.703 249.864 153.661 250.031 153.599 250.178C153.389 250.91 153.117 251.601 152.824 252.271C152.719 252.522 152.615 252.795 152.51 253.046C152.196 253.883 151.84 254.679 151.421 255.453C151.045 256.354 150.584 257.275 150.102 258.175C149.642 259.054 149.16 259.954 148.595 260.834C148.114 261.713 147.59 262.571 146.983 263.409C146.606 264.037 146.188 264.623 145.769 265.23C145.35 265.837 144.932 266.382 144.471 266.947C143.78 267.931 143.006 268.873 142.168 269.773C141.582 270.506 140.954 271.197 140.242 271.909C139.614 272.599 138.944 273.269 138.253 273.939C138.191 274.002 138.107 274.107 138.002 274.149C136.579 275.572 135.029 276.912 133.438 278.105C132.748 278.671 132.078 279.194 131.345 279.676C130.675 280.157 130.026 280.66 129.314 281.078C127.849 282.062 126.341 282.962 124.771 283.842C123.892 284.302 123.034 284.742 122.113 285.161C121.066 285.684 120.019 286.166 118.931 286.584C117.046 287.401 115.141 288.071 113.194 288.636V321.756C114.409 321.525 115.581 321.274 116.774 320.981C122.05 319.767 127.242 318.008 132.308 315.852C133.564 315.287 134.82 314.7 136.076 314.114C138.86 312.795 141.603 311.288 144.22 309.718C145.267 309.09 146.271 308.42 147.297 307.729C148.072 307.247 148.825 306.724 149.6 306.159C149.914 305.991 150.228 305.74 150.584 305.468C151.463 304.84 152.322 304.17 153.201 303.521C153.201 303.521 153.243 303.521 153.264 303.458C155.734 301.532 158.079 299.501 160.319 297.387C161.428 296.298 162.559 295.189 163.605 294.079C164.694 292.97 165.699 291.839 166.704 290.646C167.688 289.536 168.63 288.385 169.572 287.191C169.635 287.087 169.718 286.982 169.781 286.877C170.556 285.935 171.288 284.93 171.937 283.946C172.293 283.486 172.607 283.046 172.921 282.586C173.445 281.853 173.926 281.12 174.387 280.346C175.015 279.445 175.58 278.503 176.124 277.561C176.187 277.456 176.229 277.352 176.292 277.247C179.39 271.929 182.028 266.319 184.08 260.415C184.498 259.201 184.917 257.966 185.294 256.709C185.336 256.605 185.336 256.5 185.357 256.395C185.671 255.391 185.943 254.365 186.236 253.36C186.592 252.062 186.906 250.806 187.178 249.529C187.806 246.64 188.288 243.688 188.643 240.736C188.643 240.778 188.643 240.82 188.643 240.861C188.643 240.799 188.643 240.736 188.664 240.673V240.485Z" fill="url(#paint1_linear_19_1336)"/>
<path d="M188.664 240.485C188.664 240.485 188.664 240.527 188.664 240.548C188.664 240.464 188.664 240.359 188.685 240.275C188.685 240.338 188.685 240.401 188.685 240.485H188.664Z" fill="url(#paint2_linear_19_1336)"/>
<path d="M47.6266 189.339C53.2162 182.661 60.1875 177.218 68.2683 173.303C71.4086 171.775 74.6535 170.539 77.9402 169.556C78.003 169.556 78.1077 169.514 78.1914 169.493C79.1754 169.221 80.1802 168.969 81.1642 168.718C81.4154 168.676 81.6876 168.613 81.9388 168.551C82.7762 168.383 83.6135 168.195 84.4509 168.069C85.6442 167.86 86.8584 167.692 88.0517 167.546C88.1983 167.546 88.3239 167.546 88.4704 167.504V135.221C86.3769 135.368 84.3253 135.556 82.2528 135.871C81.1642 136.017 80.1174 136.185 79.0707 136.352C77.7518 136.561 76.412 136.834 75.135 137.127C73.8161 137.399 72.4762 137.755 71.1992 138.069C69.8803 138.425 68.5824 138.801 67.2844 139.22C65.9865 139.597 64.7094 140.058 63.4115 140.518C61.9042 141.083 60.3759 141.67 58.8686 142.298C57.3404 142.926 55.8331 143.617 54.3258 144.349C53.2162 144.873 52.1276 145.438 51.039 145.982C51.039 145.982 50.9971 146.024 50.9762 146.024C34.8355 154.587 21.814 167.42 13.0633 183.101C17.1037 183.143 21.2069 183.373 25.3102 183.896C33.056 184.838 40.5297 186.681 47.6476 189.298L47.6266 189.339Z" fill="url(#paint3_linear_19_1336)"/>
<path d="M88.4495 36.7625C87.5074 36.8253 86.5654 36.8672 85.6233 36.9509C60.5644 39.2329 37.9129 51.1451 21.8141 70.4685C5.7152 89.7918 -1.88413 114.244 0.397764 139.283C1.52824 151.677 5.00342 163.484 10.593 174.203C10.7186 174.475 10.8652 174.727 11.0117 174.999C16.9781 165.703 24.5565 157.434 33.5585 150.379C34.04 150.023 34.5215 149.625 35.003 149.269C34.9192 148.997 34.8355 148.725 34.7518 148.453C33.6003 144.559 32.8258 140.518 32.4489 136.373C30.9416 119.876 35.945 103.777 46.538 91.0479C57.1101 78.3402 71.9947 70.5103 88.4495 69.003V36.7625Z" fill="url(#paint4_linear_19_1336)"/>
<path d="M154.457 58.3678C142.336 48.277 128.226 41.5358 113.194 38.4583V71.7037C120.647 74.1112 127.66 77.9215 133.857 83.0716C133.857 83.0716 159.67 106.624 163.312 123.686L187.953 122.158C185.671 97.0983 173.759 74.4462 154.436 58.326L154.457 58.3678Z" fill="url(#paint5_linear_19_1336)"/>
<path d="M104.8 0H96.4257V361.554H104.8V0Z" fill="url(#paint6_linear_19_1336)"/>
<path d="M305.774 48.5073L266.626 0H100.613V8.03918H262.564V81.0827H322.961V306.284H220.569V314.324H331V77.6074L305.774 48.5073Z" fill="url(#paint7_linear_19_1336)"/>
</g>
<defs>
<linearGradient id="paint0_linear_19_1336" x1="-84.1578" y1="155.403" x2="154.777" y2="386.314" gradientUnits="userSpaceOnUse">
<stop stop-color="#8FCA7A"/>
<stop offset="1" stop-color="#009BDF"/>
</linearGradient>
<linearGradient id="paint1_linear_19_1336" x1="-20.4323" y1="89.4568" x2="218.503" y2="320.367" gradientUnits="userSpaceOnUse">
<stop stop-color="#8FCA7A"/>
<stop offset="1" stop-color="#009BDF"/>
</linearGradient>
<linearGradient id="paint2_linear_19_1336" x1="4.52433" y1="62.3845" x2="244.287" y2="294.054" gradientUnits="userSpaceOnUse">
<stop stop-color="#8FCA7A"/>
<stop offset="1" stop-color="#009BDF"/>
</linearGradient>
<linearGradient id="paint3_linear_19_1336" x1="-20.8929" y1="89.9383" x2="218.042" y2="320.849" gradientUnits="userSpaceOnUse">
<stop stop-color="#8FCA7A"/>
<stop offset="1" stop-color="#009BDF"/>
</linearGradient>
<linearGradient id="paint4_linear_19_1336" x1="-10.258" y1="58.4097" x2="289.597" y2="295.725" gradientUnits="userSpaceOnUse">
<stop stop-color="#8FCA7A"/>
<stop offset="1" stop-color="#009BDF"/>
</linearGradient>
<linearGradient id="paint5_linear_19_1336" x1="39.0225" y1="-3.85207" x2="338.878" y2="233.463" gradientUnits="userSpaceOnUse">
<stop stop-color="#8FCA7A"/>
<stop offset="1" stop-color="#009BDF"/>
</linearGradient>
<linearGradient id="paint6_linear_19_1336" x1="18.6948" y1="24.4525" x2="228.785" y2="425.339" gradientUnits="userSpaceOnUse">
<stop stop-color="#8FCA7A"/>
<stop offset="1" stop-color="#009BDF"/>
</linearGradient>
<linearGradient id="paint7_linear_19_1336" x1="100.613" y1="157.162" x2="331" y2="157.162" gradientUnits="userSpaceOnUse">
<stop stop-color="#8FCA7A"/>
<stop offset="1" stop-color="#009BDF"/>
</linearGradient>
<clipPath id="clip0_19_1336">
<rect width="331" height="361.554" fill="white"/>
</clipPath>
</defs>
</svg>
