<svg width="932" height="373" viewBox="0 0 932 373" fill="none" xmlns="http://www.w3.org/2000/svg">
<path d="M390.207 307.959C390.207 308.522 390.01 309.029 389.616 309.48C389.278 309.93 388.687 310.296 387.842 310.578C386.998 310.859 385.871 311.084 384.464 311.253C383.056 311.422 381.254 311.507 379.058 311.507C376.918 311.507 375.117 311.422 373.653 311.253C372.245 311.084 371.119 310.859 370.274 310.578C369.429 310.296 368.81 309.93 368.416 309.48C368.078 309.029 367.909 308.522 367.909 307.959V204.747C367.909 204.184 368.078 203.677 368.416 203.226C368.81 202.776 369.429 202.41 370.274 202.128C371.175 201.847 372.329 201.622 373.737 201.453C375.145 201.284 376.918 201.199 379.058 201.199C381.254 201.199 383.056 201.284 384.464 201.453C385.871 201.622 386.998 201.847 387.842 202.128C388.687 202.41 389.278 202.776 389.616 203.226C390.01 203.677 390.207 204.184 390.207 204.747V307.959ZM484.72 308.128C484.72 308.691 484.551 309.198 484.213 309.649C483.876 310.043 483.312 310.381 482.524 310.662C481.736 310.944 480.638 311.141 479.23 311.253C477.879 311.422 476.189 311.507 474.162 311.507C472.079 311.507 470.333 311.422 468.926 311.253C467.574 311.141 466.504 310.944 465.716 310.662C464.928 310.381 464.365 310.043 464.027 309.649C463.689 309.198 463.52 308.691 463.52 308.128V265.137C463.52 261.477 463.239 258.605 462.676 256.522C462.169 254.439 461.409 252.665 460.395 251.201C459.382 249.681 458.058 248.526 456.425 247.738C454.849 246.893 452.991 246.471 450.851 246.471C448.148 246.471 445.417 247.456 442.658 249.427C439.899 251.398 437.027 254.27 434.043 258.042V308.128C434.043 308.691 433.874 309.198 433.536 309.649C433.198 310.043 432.607 310.381 431.762 310.662C430.974 310.944 429.904 311.141 428.553 311.253C427.201 311.422 425.484 311.507 423.401 311.507C421.317 311.507 419.6 311.422 418.249 311.253C416.897 311.141 415.799 310.944 414.955 310.662C414.166 310.381 413.603 310.043 413.265 309.649C412.927 309.198 412.758 308.691 412.758 308.128V232.788C412.758 232.225 412.899 231.746 413.181 231.352C413.462 230.902 413.969 230.536 414.701 230.254C415.433 229.973 416.362 229.776 417.488 229.663C418.671 229.494 420.135 229.41 421.88 229.41C423.682 229.41 425.174 229.494 426.357 229.663C427.539 229.776 428.44 229.973 429.06 230.254C429.735 230.536 430.214 230.902 430.496 231.352C430.777 231.746 430.918 232.225 430.918 232.788V241.488C435.085 236.983 439.308 233.605 443.587 231.352C447.923 229.1 452.427 227.974 457.101 227.974C462.225 227.974 466.533 228.818 470.024 230.508C473.571 232.197 476.415 234.506 478.554 237.434C480.75 240.305 482.327 243.684 483.284 247.569C484.242 251.454 484.72 256.128 484.72 261.59V308.128ZM572.476 232.704C572.476 232.985 572.448 233.323 572.392 233.717C572.392 234.111 572.335 234.562 572.223 235.069C572.167 235.519 572.054 236.054 571.885 236.673C571.772 237.293 571.603 237.997 571.378 238.785L548.742 306.946C548.461 307.903 548.067 308.691 547.56 309.311C547.109 309.874 546.321 310.324 545.195 310.662C544.125 311 542.633 311.225 540.718 311.338C538.86 311.45 536.411 311.507 533.37 311.507C530.386 311.507 527.937 311.422 526.022 311.253C524.164 311.141 522.7 310.916 521.63 310.578C520.56 310.24 519.772 309.789 519.265 309.226C518.815 308.607 518.449 307.847 518.167 306.946L495.531 238.785C495.193 237.659 494.912 236.645 494.687 235.744C494.518 234.843 494.405 234.196 494.349 233.802C494.349 233.408 494.349 233.042 494.349 232.704C494.349 232.141 494.49 231.662 494.771 231.268C495.109 230.817 495.672 230.451 496.46 230.17C497.249 229.888 498.319 229.691 499.67 229.579C501.078 229.466 502.823 229.41 504.907 229.41C507.215 229.41 509.073 229.494 510.481 229.663C511.889 229.776 512.987 229.973 513.775 230.254C514.62 230.48 515.211 230.846 515.549 231.352C515.887 231.803 516.168 232.366 516.393 233.042L533.539 288.364L534.046 290.476L534.553 288.364L551.445 233.042C551.614 232.366 551.867 231.803 552.205 231.352C552.599 230.846 553.191 230.48 553.979 230.254C554.767 229.973 555.809 229.776 557.104 229.663C558.456 229.494 560.201 229.41 562.341 229.41C564.424 229.41 566.113 229.466 567.408 229.579C568.76 229.691 569.802 229.888 570.534 230.17C571.266 230.451 571.772 230.817 572.054 231.268C572.335 231.662 572.476 232.141 572.476 232.704ZM659.557 269.698C659.557 276.117 658.712 281.973 657.023 287.266C655.333 292.559 652.771 297.12 649.337 300.949C645.902 304.778 641.594 307.734 636.414 309.818C631.234 311.901 625.181 312.943 618.255 312.943C611.554 312.943 605.726 312.014 600.771 310.155C595.816 308.297 591.705 305.594 588.44 302.047C585.174 298.5 582.752 294.136 581.176 288.955C579.599 283.775 578.811 277.863 578.811 271.218C578.811 264.799 579.655 258.943 581.345 253.65C583.09 248.301 585.68 243.74 589.115 239.967C592.55 236.138 596.829 233.182 601.953 231.099C607.134 229.016 613.187 227.974 620.113 227.974C626.87 227.974 632.726 228.903 637.681 230.761C642.636 232.563 646.718 235.238 649.928 238.785C653.194 242.332 655.615 246.696 657.192 251.877C658.768 257.057 659.557 262.997 659.557 269.698ZM637.681 270.543C637.681 266.826 637.371 263.42 636.752 260.323C636.189 257.17 635.203 254.439 633.796 252.13C632.388 249.821 630.502 248.019 628.137 246.724C625.828 245.429 622.9 244.782 619.353 244.782C616.199 244.782 613.44 245.373 611.075 246.555C608.71 247.682 606.768 249.371 605.247 251.623C603.727 253.819 602.573 256.494 601.785 259.647C601.053 262.744 600.687 266.291 600.687 270.289C600.687 274.006 600.996 277.44 601.616 280.594C602.235 283.691 603.22 286.393 604.572 288.702C605.979 291.011 607.866 292.813 610.231 294.108C612.596 295.346 615.524 295.966 619.015 295.966C622.224 295.966 625.012 295.403 627.377 294.277C629.741 293.094 631.684 291.405 633.204 289.209C634.725 287.013 635.851 284.366 636.583 281.269C637.315 278.116 637.681 274.541 637.681 270.543ZM697.733 308.128C697.733 308.691 697.564 309.198 697.227 309.649C696.889 310.043 696.298 310.381 695.453 310.662C694.665 310.944 693.595 311.141 692.243 311.253C690.892 311.422 689.175 311.507 687.091 311.507C685.008 311.507 683.29 311.422 681.939 311.253C680.588 311.141 679.49 310.944 678.645 310.662C677.857 310.381 677.294 310.043 676.956 309.649C676.618 309.198 676.449 308.691 676.449 308.128V232.957C676.449 232.394 676.618 231.915 676.956 231.521C677.294 231.071 677.857 230.705 678.645 230.423C679.49 230.085 680.588 229.832 681.939 229.663C683.29 229.494 685.008 229.41 687.091 229.41C689.175 229.41 690.892 229.494 692.243 229.663C693.595 229.832 694.665 230.085 695.453 230.423C696.298 230.705 696.889 231.071 697.227 231.521C697.564 231.915 697.733 232.394 697.733 232.957V308.128ZM699.338 207.281C699.338 211.56 698.465 214.516 696.72 216.149C694.974 217.782 691.737 218.599 687.007 218.599C682.221 218.599 678.983 217.81 677.294 216.234C675.661 214.657 674.844 211.813 674.844 207.703C674.844 203.424 675.689 200.467 677.378 198.834C679.124 197.145 682.389 196.301 687.176 196.301C691.906 196.301 695.115 197.117 696.804 198.75C698.494 200.327 699.338 203.17 699.338 207.281ZM776.03 296.135C776.03 297.599 775.973 298.837 775.861 299.851C775.804 300.808 775.692 301.625 775.523 302.3C775.41 302.976 775.241 303.539 775.016 303.99C774.847 304.384 774.425 304.919 773.749 305.594C773.074 306.214 771.919 307.002 770.286 307.959C768.653 308.86 766.795 309.677 764.712 310.409C762.628 311.141 760.348 311.732 757.87 312.182C755.449 312.633 752.943 312.858 750.353 312.858C744.554 312.858 739.401 311.957 734.897 310.155C730.448 308.354 726.704 305.707 723.663 302.216C720.623 298.669 718.314 294.361 716.737 289.293C715.217 284.226 714.457 278.426 714.457 271.894C714.457 264.349 715.386 257.845 717.244 252.383C719.159 246.865 721.805 242.304 725.184 238.7C728.562 235.097 732.56 232.422 737.177 230.677C741.794 228.931 746.862 228.058 752.38 228.058C754.633 228.058 756.829 228.255 758.968 228.65C761.164 229.044 763.191 229.579 765.05 230.254C766.964 230.93 768.653 231.69 770.117 232.535C771.638 233.379 772.708 234.111 773.327 234.731C773.946 235.35 774.369 235.885 774.594 236.336C774.875 236.73 775.072 237.265 775.185 237.94C775.354 238.616 775.467 239.461 775.523 240.474C775.636 241.431 775.692 242.614 775.692 244.022C775.692 247.287 775.41 249.596 774.847 250.947C774.284 252.243 773.552 252.89 772.651 252.89C771.694 252.89 770.68 252.496 769.611 251.708C768.541 250.919 767.274 250.047 765.81 249.089C764.346 248.132 762.6 247.259 760.573 246.471C758.546 245.683 756.125 245.289 753.309 245.289C747.791 245.289 743.568 247.428 740.64 251.708C737.712 255.931 736.248 262.153 736.248 270.374C736.248 274.428 736.614 278.003 737.346 281.1C738.078 284.197 739.148 286.788 740.556 288.871C742.02 290.954 743.822 292.531 745.961 293.601C748.157 294.614 750.691 295.121 753.563 295.121C756.491 295.121 758.997 294.699 761.08 293.854C763.22 292.953 765.078 291.968 766.654 290.898C768.231 289.828 769.554 288.871 770.624 288.026C771.694 287.125 772.595 286.675 773.327 286.675C773.834 286.675 774.256 286.816 774.594 287.097C774.932 287.379 775.185 287.914 775.354 288.702C775.579 289.434 775.748 290.391 775.861 291.574C775.973 292.756 776.03 294.277 776.03 296.135ZM861.083 268.262C861.083 270.852 860.492 272.767 859.309 274.006C858.183 275.244 856.607 275.864 854.579 275.864H808.717C808.717 279.073 809.083 282.001 809.815 284.648C810.603 287.238 811.813 289.462 813.446 291.32C815.136 293.122 817.275 294.502 819.866 295.459C822.512 296.416 825.665 296.895 829.325 296.895C833.042 296.895 836.307 296.641 839.123 296.135C841.938 295.572 844.36 294.98 846.387 294.361C848.47 293.685 850.187 293.094 851.539 292.587C852.89 292.024 853.988 291.743 854.833 291.743C855.34 291.743 855.762 291.855 856.1 292.081C856.438 292.249 856.719 292.587 856.944 293.094C857.17 293.601 857.31 294.333 857.367 295.29C857.479 296.191 857.536 297.345 857.536 298.753C857.536 299.992 857.507 301.062 857.451 301.963C857.395 302.807 857.31 303.539 857.198 304.159C857.085 304.778 856.916 305.313 856.691 305.763C856.466 306.158 856.156 306.552 855.762 306.946C855.424 307.34 854.439 307.875 852.806 308.551C851.173 309.226 849.089 309.902 846.556 310.578C844.022 311.197 841.122 311.732 837.856 312.182C834.59 312.689 831.099 312.943 827.383 312.943C820.682 312.943 814.798 312.098 809.73 310.409C804.719 308.72 800.524 306.158 797.145 302.723C793.767 299.288 791.233 294.952 789.544 289.716C787.911 284.479 787.094 278.341 787.094 271.303C787.094 264.602 787.967 258.577 789.713 253.228C791.458 247.822 793.992 243.261 797.314 239.545C800.636 235.772 804.662 232.901 809.392 230.93C814.178 228.959 819.556 227.974 825.524 227.974C831.831 227.974 837.208 228.903 841.657 230.761C846.161 232.619 849.85 235.209 852.721 238.532C855.593 241.797 857.705 245.683 859.056 250.187C860.407 254.692 861.083 259.591 861.083 264.884V268.262ZM840.474 262.181C840.643 256.212 839.433 251.539 836.842 248.16C834.309 244.725 830.367 243.008 825.018 243.008C822.315 243.008 819.95 243.515 817.923 244.528C815.952 245.542 814.291 246.921 812.94 248.667C811.645 250.356 810.631 252.383 809.899 254.748C809.223 257.057 808.829 259.534 808.717 262.181H840.474ZM931.693 286.844C931.693 291.123 930.877 294.896 929.244 298.162C927.667 301.428 925.415 304.159 922.487 306.355C919.559 308.551 916.096 310.184 912.098 311.253C908.1 312.38 903.764 312.943 899.091 312.943C896.275 312.943 893.573 312.717 890.983 312.267C888.449 311.873 886.168 311.366 884.141 310.747C882.114 310.071 880.425 309.395 879.073 308.72C877.722 308.044 876.737 307.424 876.117 306.861C875.498 306.242 875.019 305.313 874.681 304.074C874.344 302.779 874.175 300.893 874.175 298.415C874.175 296.782 874.231 295.487 874.344 294.53C874.456 293.516 874.625 292.728 874.85 292.165C875.076 291.546 875.357 291.151 875.695 290.982C876.033 290.757 876.455 290.645 876.962 290.645C877.581 290.645 878.482 291.011 879.665 291.743C880.903 292.418 882.424 293.179 884.226 294.023C886.027 294.868 888.111 295.656 890.476 296.388C892.897 297.12 895.628 297.486 898.669 297.486C900.583 297.486 902.272 297.289 903.736 296.895C905.257 296.501 906.552 295.938 907.622 295.206C908.748 294.474 909.592 293.545 910.155 292.418C910.718 291.292 911 289.997 911 288.533C911 286.844 910.465 285.408 909.395 284.226C908.382 282.987 907.002 281.917 905.257 281.016C903.567 280.115 901.625 279.27 899.429 278.482C897.289 277.694 895.065 276.821 892.756 275.864C890.504 274.907 888.28 273.809 886.084 272.57C883.944 271.331 882.001 269.811 880.256 268.009C878.567 266.207 877.187 264.039 876.117 261.505C875.104 258.971 874.597 255.931 874.597 252.383C874.597 248.78 875.301 245.486 876.708 242.501C878.116 239.461 880.143 236.87 882.79 234.731C885.436 232.591 888.646 230.93 892.418 229.748C896.247 228.565 900.527 227.974 905.257 227.974C907.622 227.974 909.902 228.143 912.098 228.481C914.35 228.818 916.377 229.241 918.179 229.748C919.981 230.254 921.501 230.817 922.74 231.437C923.979 232 924.852 232.507 925.359 232.957C925.922 233.351 926.316 233.774 926.541 234.224C926.766 234.618 926.935 235.125 927.048 235.744C927.16 236.307 927.245 237.039 927.301 237.94C927.414 238.785 927.47 239.855 927.47 241.15C927.47 242.67 927.414 243.909 927.301 244.866C927.245 245.823 927.104 246.584 926.879 247.147C926.71 247.71 926.457 248.104 926.119 248.329C925.781 248.498 925.387 248.583 924.936 248.583C924.429 248.583 923.641 248.301 922.571 247.738C921.501 247.119 920.15 246.471 918.517 245.795C916.941 245.12 915.082 244.5 912.943 243.937C910.859 243.318 908.466 243.008 905.763 243.008C903.849 243.008 902.188 243.205 900.78 243.599C899.372 243.993 898.218 244.557 897.317 245.289C896.416 246.021 895.741 246.893 895.29 247.907C894.84 248.864 894.614 249.906 894.614 251.032C894.614 252.778 895.149 254.242 896.219 255.424C897.289 256.606 898.697 257.648 900.442 258.549C902.188 259.45 904.159 260.295 906.355 261.083C908.607 261.871 910.859 262.744 913.112 263.701C915.42 264.602 917.673 265.672 919.869 266.911C922.121 268.15 924.12 269.67 925.865 271.472C927.611 273.274 929.019 275.441 930.088 277.975C931.158 280.453 931.693 283.409 931.693 286.844Z" fill="#0DA0D6"/>
<g clip-path="url(#clip0_19_1337)">
<path d="M77.8984 321.735C77.8984 321.735 77.8356 321.735 77.8146 321.735C79.8035 322.112 81.7923 322.405 83.802 322.656C85.3512 322.844 86.9004 322.97 88.4495 323.096V290.813C88.1983 290.792 87.9471 290.771 87.6959 290.75C86.5445 290.604 85.393 290.436 84.2835 290.227C83.488 290.081 82.7134 289.955 81.9179 289.746C81.248 289.641 80.6199 289.473 79.9919 289.285C78.2543 288.866 76.4958 288.301 74.7582 287.715C74.3395 287.568 73.9208 287.443 73.544 287.254C72.7066 286.94 71.911 286.626 71.0946 286.27C70.5712 286.103 70.0897 285.852 69.5873 285.6C69.4826 285.558 69.3361 285.538 69.2314 285.454C68.9174 285.307 68.6033 285.182 68.3312 284.993C67.4938 284.637 66.6564 284.219 65.8609 283.737C65.6934 283.674 65.4841 283.57 65.2957 283.423C64.3117 282.942 63.3487 282.376 62.3648 281.748C61.2134 281.057 60.062 280.283 58.9733 279.487C57.8219 278.692 56.7333 277.854 55.6656 276.933C55.4982 276.787 55.2888 276.619 55.1004 276.452C54.2211 275.761 53.3838 274.986 52.5882 274.191C52.337 274.023 52.1067 273.772 51.8974 273.521C50.9972 272.641 50.0761 271.699 49.2805 270.757C48.2338 269.669 47.2917 268.559 46.4125 267.366C46.0566 266.947 45.7216 266.528 45.4076 266.068L11.3886 271.992C12.54 274.232 13.7333 276.389 15.0521 278.524C15.8267 279.822 16.6641 281.099 17.5225 282.355C17.8993 282.921 18.297 283.465 18.7157 284.03C19.4485 285.119 20.223 286.166 21.0604 287.17C22.149 288.573 23.2586 289.892 24.41 291.211C26.7128 293.828 29.1203 296.319 31.6744 298.643C32.7839 299.648 33.9144 300.674 35.0867 301.637C35.652 302.097 36.1963 302.537 36.7615 302.956C37.0755 303.27 37.4314 303.521 37.8083 303.751C38.6875 304.484 39.5877 305.154 40.5298 305.803C42.7698 307.415 45.0726 308.88 47.4801 310.283C48.6734 310.974 49.8458 311.644 51.0809 312.314C52.2742 312.942 53.5303 313.57 54.7445 314.156C56.0006 314.721 57.2567 315.308 58.5546 315.831C60.3969 316.606 62.2601 317.338 64.1442 317.987C66.6983 318.867 69.2523 319.662 71.7854 320.332C73.8161 320.835 75.8468 321.274 77.9193 321.651L77.8984 321.735Z" fill="url(#paint0_linear_19_1337)"/>
<path d="M188.664 240.485C188.978 237.889 189.188 235.314 189.292 232.739C189.397 230.163 189.418 227.588 189.313 225.034C189.251 223.883 189.167 222.773 189.104 221.643C189.062 221.266 189.041 220.847 188.999 220.429C188.937 219.528 188.832 218.607 188.685 217.749C188.413 215.446 188.057 213.143 187.576 210.84C187.429 210.003 187.262 209.165 187.052 208.37C185.901 203.241 184.289 198.216 182.258 193.296C182.216 193.254 182.196 193.234 182.196 193.15C181.526 191.538 180.793 189.947 180.039 188.335C179.369 186.974 178.72 185.634 178.009 184.315C177.339 183.122 176.69 181.97 175.978 180.819C175.35 179.73 174.659 178.662 173.947 177.616C173.256 176.527 172.482 175.459 171.707 174.371C170.933 173.282 170.137 172.235 169.342 171.189C165.992 166.897 162.287 162.94 158.351 159.318C157.346 158.439 156.32 157.539 155.315 156.701C154.31 155.864 153.264 155.026 152.217 154.231C151.442 153.645 150.71 153.079 149.956 152.556C149.223 151.991 148.449 151.467 147.695 150.986C147.339 150.777 147.025 150.567 146.711 150.316C145.56 149.583 144.366 148.851 143.194 148.16C137.877 145.019 132.224 142.423 126.3 140.33C125.044 139.869 123.746 139.451 122.469 139.074C121.275 138.718 120.103 138.383 118.91 138.069C118.637 138.006 118.344 137.922 118.072 137.859C117.193 137.65 116.335 137.441 115.497 137.273C115.016 137.169 114.492 137.064 113.969 136.959C113.739 136.917 113.488 136.875 113.257 136.834V169.912C114.074 170.163 114.911 170.435 115.707 170.728C115.853 170.791 116.021 170.833 116.167 170.895C116.9 171.105 117.591 171.377 118.261 171.67C119.37 172.131 120.459 172.57 121.547 173.073C123.369 173.91 125.106 174.81 126.823 175.857C127.702 176.339 128.561 176.904 129.398 177.469C130.193 177.993 131.01 178.558 131.764 179.102C133.124 180.086 134.443 181.133 135.741 182.284C136.474 182.87 137.165 183.499 137.877 184.21C138.567 184.838 139.237 185.508 139.907 186.199C139.97 186.262 140.075 186.346 140.117 186.45C141.435 187.769 142.671 189.214 143.78 190.679C144.199 191.14 144.576 191.663 144.932 192.145C145.497 192.878 146.02 193.61 146.502 194.343C147.088 195.181 147.653 196.06 148.176 196.918C148.742 197.797 149.223 198.698 149.705 199.577C149.705 199.619 149.747 199.64 149.768 199.682C150.249 200.561 150.71 201.419 151.086 202.34C152.552 205.313 153.745 208.349 154.645 211.489C154.792 211.971 154.917 212.473 155.064 212.955C155.231 213.52 155.378 214.064 155.525 214.629C155.671 215.216 155.797 215.823 155.901 216.409C156.278 218.084 156.571 219.759 156.739 221.475C156.885 222.271 156.948 223.087 157.011 223.925C157.053 223.988 157.053 224.071 157.011 224.134C157.283 227.065 157.325 229.996 157.116 232.969C157.011 235.272 156.739 237.575 156.32 239.857C156.174 240.861 155.964 241.845 155.734 242.85C155.525 243.834 155.273 244.776 155.001 245.739V245.886C154.75 246.723 154.52 247.519 154.227 248.356C154.08 248.817 153.954 249.257 153.766 249.717C153.703 249.864 153.661 250.031 153.599 250.178C153.389 250.91 153.117 251.601 152.824 252.271C152.719 252.522 152.615 252.795 152.51 253.046C152.196 253.883 151.84 254.679 151.421 255.453C151.045 256.354 150.584 257.275 150.102 258.175C149.642 259.054 149.16 259.955 148.595 260.834C148.114 261.713 147.59 262.571 146.983 263.409C146.606 264.037 146.188 264.623 145.769 265.23C145.35 265.837 144.932 266.382 144.471 266.947C143.78 267.931 143.006 268.873 142.168 269.773C141.582 270.506 140.954 271.197 140.242 271.909C139.614 272.6 138.944 273.269 138.253 273.939C138.191 274.002 138.107 274.107 138.002 274.149C136.579 275.572 135.029 276.912 133.438 278.105C132.748 278.671 132.078 279.194 131.345 279.676C130.675 280.157 130.026 280.66 129.314 281.078C127.849 282.062 126.341 282.963 124.771 283.842C123.892 284.302 123.034 284.742 122.113 285.161C121.066 285.684 120.019 286.166 118.931 286.584C117.046 287.401 115.141 288.071 113.194 288.636V321.756C114.409 321.525 115.581 321.274 116.774 320.981C122.05 319.767 127.242 318.008 132.308 315.852C133.564 315.287 134.82 314.701 136.076 314.114C138.86 312.795 141.603 311.288 144.22 309.718C145.267 309.09 146.271 308.42 147.297 307.729C148.072 307.248 148.825 306.724 149.6 306.159C149.914 305.991 150.228 305.74 150.584 305.468C151.463 304.84 152.322 304.17 153.201 303.521C153.201 303.521 153.243 303.521 153.264 303.458C155.734 301.532 158.079 299.501 160.319 297.387C161.428 296.298 162.559 295.189 163.605 294.079C164.694 292.97 165.699 291.839 166.704 290.646C167.688 289.536 168.63 288.385 169.572 287.191C169.635 287.087 169.718 286.982 169.781 286.877C170.556 285.935 171.288 284.93 171.937 283.946C172.293 283.486 172.607 283.046 172.921 282.586C173.445 281.853 173.926 281.12 174.387 280.346C175.015 279.445 175.58 278.503 176.124 277.561C176.187 277.457 176.229 277.352 176.292 277.247C179.39 271.93 182.028 266.319 184.08 260.415C184.498 259.201 184.917 257.966 185.294 256.71C185.336 256.605 185.336 256.5 185.357 256.396C185.671 255.391 185.943 254.365 186.236 253.36C186.592 252.062 186.906 250.806 187.178 249.529C187.806 246.64 188.288 243.688 188.643 240.736C188.643 240.778 188.643 240.82 188.643 240.861C188.643 240.799 188.643 240.736 188.664 240.673V240.485Z" fill="url(#paint1_linear_19_1337)"/>
<path d="M188.664 240.485C188.664 240.485 188.664 240.527 188.664 240.548C188.664 240.464 188.664 240.359 188.685 240.275C188.685 240.338 188.685 240.401 188.685 240.485H188.664Z" fill="url(#paint2_linear_19_1337)"/>
<path d="M47.6266 189.339C53.2162 182.661 60.1875 177.218 68.2683 173.303C71.4086 171.775 74.6535 170.54 77.9402 169.556C78.003 169.556 78.1077 169.514 78.1914 169.493C79.1754 169.221 80.1802 168.969 81.1642 168.718C81.4154 168.676 81.6876 168.613 81.9388 168.551C82.7762 168.383 83.6135 168.195 84.4509 168.069C85.6442 167.86 86.8584 167.692 88.0517 167.546C88.1983 167.546 88.3239 167.546 88.4704 167.504V135.222C86.3769 135.368 84.3253 135.557 82.2528 135.871C81.1642 136.017 80.1174 136.185 79.0707 136.352C77.7518 136.561 76.412 136.834 75.135 137.127C73.8161 137.399 72.4762 137.755 71.1992 138.069C69.8803 138.425 68.5824 138.802 67.2844 139.22C65.9865 139.597 64.7094 140.058 63.4115 140.518C61.9042 141.083 60.3759 141.67 58.8686 142.298C57.3404 142.926 55.8331 143.617 54.3258 144.349C53.2162 144.873 52.1276 145.438 51.039 145.982C51.039 145.982 50.9971 146.024 50.9762 146.024C34.8355 154.587 21.814 167.42 13.0633 183.101C17.1037 183.143 21.2069 183.373 25.3102 183.896C33.056 184.838 40.5297 186.681 47.6476 189.298L47.6266 189.339Z" fill="url(#paint3_linear_19_1337)"/>
<path d="M88.4495 36.7625C87.5074 36.8253 86.5654 36.8671 85.6233 36.9509C60.5644 39.2328 37.9129 51.1451 21.8141 70.4684C5.7152 89.7917 -1.88413 114.244 0.397764 139.283C1.52824 151.677 5.00342 163.484 10.593 174.203C10.7186 174.475 10.8652 174.727 11.0117 174.999C16.9781 165.703 24.5565 157.434 33.5585 150.379C34.04 150.023 34.5215 149.625 35.003 149.269C34.9192 148.997 34.8355 148.725 34.7518 148.453C33.6003 144.559 32.8258 140.518 32.4489 136.373C30.9416 119.876 35.945 103.777 46.538 91.0479C57.1101 78.3401 71.9947 70.5103 88.4495 69.0029V36.7625Z" fill="url(#paint4_linear_19_1337)"/>
<path d="M154.457 58.3678C142.336 48.2769 128.226 41.5358 113.194 38.4583V71.7036C120.647 74.1112 127.66 77.9214 133.857 83.0715C133.857 83.0715 159.67 106.624 163.312 123.686L187.953 122.158C185.671 97.0982 173.759 74.4462 154.436 58.3259L154.457 58.3678Z" fill="url(#paint5_linear_19_1337)"/>
<path d="M104.8 0H96.4257V361.554H104.8V0Z" fill="url(#paint6_linear_19_1337)"/>
<path d="M305.774 48.5073L266.626 0H100.613V8.03918H262.564V81.0827H322.961V306.284H220.569V314.324H331V77.6074L305.774 48.5073Z" fill="url(#paint7_linear_19_1337)"/>
</g>
<defs>
<linearGradient id="paint0_linear_19_1337" x1="-84.1578" y1="155.403" x2="154.777" y2="386.314" gradientUnits="userSpaceOnUse">
<stop stop-color="#8FCA7A"/>
<stop offset="1" stop-color="#009BDF"/>
</linearGradient>
<linearGradient id="paint1_linear_19_1337" x1="-20.4323" y1="89.4569" x2="218.503" y2="320.367" gradientUnits="userSpaceOnUse">
<stop stop-color="#8FCA7A"/>
<stop offset="1" stop-color="#009BDF"/>
</linearGradient>
<linearGradient id="paint2_linear_19_1337" x1="4.52433" y1="62.3847" x2="244.287" y2="294.054" gradientUnits="userSpaceOnUse">
<stop stop-color="#8FCA7A"/>
<stop offset="1" stop-color="#009BDF"/>
</linearGradient>
<linearGradient id="paint3_linear_19_1337" x1="-20.8929" y1="89.9383" x2="218.042" y2="320.849" gradientUnits="userSpaceOnUse">
<stop stop-color="#8FCA7A"/>
<stop offset="1" stop-color="#009BDF"/>
</linearGradient>
<linearGradient id="paint4_linear_19_1337" x1="-10.258" y1="58.4096" x2="289.597" y2="295.725" gradientUnits="userSpaceOnUse">
<stop stop-color="#8FCA7A"/>
<stop offset="1" stop-color="#009BDF"/>
</linearGradient>
<linearGradient id="paint5_linear_19_1337" x1="39.0225" y1="-3.85213" x2="338.878" y2="233.463" gradientUnits="userSpaceOnUse">
<stop stop-color="#8FCA7A"/>
<stop offset="1" stop-color="#009BDF"/>
</linearGradient>
<linearGradient id="paint6_linear_19_1337" x1="18.6948" y1="24.4525" x2="228.785" y2="425.339" gradientUnits="userSpaceOnUse">
<stop stop-color="#8FCA7A"/>
<stop offset="1" stop-color="#009BDF"/>
</linearGradient>
<linearGradient id="paint7_linear_19_1337" x1="100.613" y1="157.162" x2="331" y2="157.162" gradientUnits="userSpaceOnUse">
<stop stop-color="#8FCA7A"/>
<stop offset="1" stop-color="#009BDF"/>
</linearGradient>
<clipPath id="clip0_19_1337">
<rect width="331" height="361.554" fill="white"/>
</clipPath>
</defs>
</svg>
